<!DOCTYPE svg PUBLIC "-//W3C//DTD SVG 1.1//EN" "http://www.w3.org/Graphics/SVG/1.1/DTD/svg11.dtd">
<!-- Uploaded to: SVG Repo, www.svgrepo.com, Transformed by: SVG Repo Mixer Tools -->
<svg fill="#000000" width="64px" height="64px" viewBox="-8 -8 48.00 48.00" version="1.1" xmlns="http://www.w3.org/2000/svg" stroke="#000000" stroke-width="3.2">
<g id="SVGRepo_bgCarrier" stroke-width="0"/>
<g id="SVGRepo_tracerCarrier" stroke-linecap="round" stroke-linejoin="round"/>
<g id="SVGRepo_iconCarrier"> <title>square-rounded</title> <path d="M26 0.75h-20c-2.898 0.004-5.246 2.352-5.25 5.25v20c0.004 2.898 2.352 5.246 5.25 5.25h20c2.898-0.004 5.246-2.352 5.25-5.25v-20c-0.004-2.898-2.352-5.246-5.25-5.25h-0zM28.75 26c-0.002 1.518-1.232 2.748-2.75 2.75h-20c-1.518-0.002-2.748-1.232-2.75-2.75v-20c0.002-1.518 1.232-2.748 2.75-2.75h20c1.518 0.002 2.748 1.232 2.75 2.75v0z"/> </g>
</svg>